<svg width="512" height="512" viewBox="0 0 30 32" fill="none" xmlns="http://www.w3.org/2000/svg">
<g id="Layer_1" clip-path="url(#clip0_10025_381)">
<g id="Group">
<g id="Group_2">
<path id="Vector" d="M0 20.4125V9.8C0 9.0975 0.3675 8.4475 0.97 8.085L13.97 0.285C14.6025 -0.095 15.395 -0.095 16.0275 0.285L23.7925 4.945C22.2825 4.0375 20.355 4.2275 19.05 5.41L1.6725 21.1525C1.03 21.735 0 21.2775 0 20.4125Z" fill="url(#paint0_linear_10025_381)"/>
<path id="Vector_2" d="M1.545 14.6625L17.905 4.03C19.1875 3.1975 20.8325 3.1675 22.1425 3.955L16.03 0.285C15.3975 -0.095 14.605 -0.095 13.9725 0.285L0.97 8.085C0.3675 8.4475 0 9.0975 0 9.8V13.825C0 14.6175 0.88 15.095 1.545 14.6625Z" fill="url(#paint1_linear_10025_381)"/>
</g>
<path id="Vector_3" d="M28.3282 21.1528L16.3432 10.2953C15.5807 9.60528 14.4207 9.60528 13.6582 10.2953L19.0507 5.41028C20.3557 4.22778 22.2832 4.03778 23.7932 4.94528L29.0282 8.08528C29.6307 8.44778 29.9982 9.09778 29.9982 9.80028V20.4128C29.9982 21.2803 28.9707 21.7353 28.3257 21.1528H28.3282Z" fill="url(#paint2_linear_10025_381)"/>
<path id="Vector_4" d="M28.4556 14.6628L18.3231 8.07778C17.5631 7.58278 16.5631 7.66278 15.8906 8.27278L19.0506 5.41028C20.3556 4.22778 22.2831 4.03778 23.7931 4.94528L29.0281 8.08528C29.6306 8.44778 29.9981 9.09778 29.9981 9.80028V13.8253C29.9981 14.6178 29.1181 15.0953 28.4531 14.6628H28.4556Z" fill="url(#paint3_linear_10025_381)"/>
</g>
<g id="Group_3">
<path id="Vector_5" d="M12.9627 16.5926L2.4452 22.8226C1.6602 23.2876 1.6602 24.4226 2.4452 24.8876L13.9827 31.7201C14.6102 32.0926 15.3927 32.0926 16.0202 31.7201L27.5577 24.8876C28.3427 24.4226 28.3427 23.2876 27.5577 22.8226L17.0402 16.5926C15.7827 15.8476 14.2202 15.8476 12.9627 16.5926Z" fill="url(#paint4_linear_10025_381)"/>
<path id="Vector_6" d="M13.0971 16.4727L5.84461 20.7677C5.05961 21.2327 5.05961 22.3678 5.84461 22.8328L14.0471 27.6927C14.6346 28.0402 15.3621 28.0402 15.9496 27.6927L24.1521 22.8328C24.9371 22.3678 24.9371 21.2327 24.1521 20.7677L16.8996 16.4727C15.7271 15.7777 14.2671 15.7777 13.0946 16.4727H13.0971Z" fill="url(#paint5_linear_10025_381)"/>
</g>
</g>
<defs>
<linearGradient id="paint0_linear_10025_381" x1="-1.5175" y1="20.3725" x2="18.145" y2="0.710004" gradientUnits="userSpaceOnUse">
<stop offset="0.46" stop-color="#FFD600"/>
<stop offset="0.56" stop-color="#FFCB00"/>
<stop offset="0.74" stop-color="#FFAE00"/>
<stop offset="0.95" stop-color="#FF8700"/>
</linearGradient>
<linearGradient id="paint1_linear_10025_381" x1="-0.5875" y1="18.1225" x2="20.435" y2="-2.9025" gradientUnits="userSpaceOnUse">
<stop offset="0.18" stop-color="#FFD600"/>
<stop offset="1" stop-color="#FF8700"/>
</linearGradient>
<linearGradient id="paint2_linear_10025_381" x1="13.6582" y1="12.8953" x2="30.0007" y2="12.8953" gradientUnits="userSpaceOnUse">
<stop offset="0.43" stop-color="#FFD600"/>
<stop offset="1" stop-color="#FFE800"/>
</linearGradient>
<linearGradient id="paint3_linear_10025_381" x1="16.2931" y1="4.37028" x2="31.0331" y2="13.4703" gradientUnits="userSpaceOnUse">
<stop offset="0.43" stop-color="#FFD600"/>
<stop offset="1" stop-color="#FFDA00"/>
</linearGradient>
<linearGradient id="paint4_linear_10025_381" x1="19.8177" y1="31.6576" x2="10.7927" y2="17.0376" gradientUnits="userSpaceOnUse">
<stop offset="0.43" stop-color="#FFD600"/>
<stop offset="1" stop-color="#FFEC79"/>
</linearGradient>
<linearGradient id="paint5_linear_10025_381" x1="14.8246" y1="14.6502" x2="15.3646" y2="36.6927" gradientUnits="userSpaceOnUse">
<stop stop-color="#FFD600"/>
<stop offset="1" stop-color="#FF8700"/>
</linearGradient>
<clipPath id="clip0_10025_381">
<rect width="30" height="32" fill="white"/>
</clipPath>
</defs>
</svg>
